# Blender v3.1.2 OBJ File: ''
# www.blender.org
mtllib light2.mtl
o Light_01_Plane.029
v -0.542908 0.075013 0.542928
v 0.542946 0.075013 0.542928
v -0.542908 0.075013 -0.542928
v 0.542946 0.075013 -0.542928
v -0.086403 0.075013 0.086431
v 0.086441 0.075013 0.086431
v 0.086441 0.075013 -0.086431
v -0.086403 0.075013 -0.086431
v -0.086403 1.058341 -0.086431
v -0.086403 1.058341 0.086431
v 0.086441 1.058341 0.086431
v 0.086441 1.058341 -0.086431
v -0.140839 1.058341 -0.140874
v -0.140839 1.058341 0.140874
v 0.140877 1.058341 0.140874
v 0.140877 1.058341 -0.140874
v -0.140839 1.125431 -0.140874
v -0.140839 1.125431 0.140874
v 0.140877 1.125431 0.140874
v 0.140877 1.125431 -0.140874
v -0.214691 1.425004 0.214715
v -0.215988 1.373326 0.216019
v -0.215988 1.373326 -0.216019
v -0.214691 1.425004 -0.214714
v -0.116119 1.706401 -0.116137
v -0.116119 1.706401 0.116138
v 0.116158 1.706401 0.116138
v 0.116158 1.706401 -0.116137
v -0.116119 1.764719 -0.116137
v -0.116119 1.764719 0.116138
v 0.116158 1.764719 0.116138
v 0.116158 1.764719 -0.116137
v -0.197220 1.424125 -0.197241
v -0.198517 1.372447 -0.198545
v -0.198517 1.372447 0.198545
v -0.197220 1.424125 0.197242
v 0.198555 1.372447 0.198545
v 0.197258 1.424125 0.197242
v 0.198555 1.372447 -0.198545
v 0.197258 1.424125 -0.197241
v 0.216026 1.373326 0.216019
v 0.214729 1.425004 0.214715
v 0.216026 1.373326 -0.216019
v 0.214729 1.425004 -0.214714
v -0.542908 -0.000000 0.542928
v 0.542946 -0.000000 0.542928
v -0.542908 0.000000 -0.542928
v 0.542946 0.000000 -0.542928
vt 0.414375 0.944375
vt 0.414375 0.944375
vt 0.414375 0.944375
vt 0.414375 0.944375
vt 0.414375 0.944375
vt 0.414375 0.944375
vt 0.414375 0.944375
vt 0.414375 0.944375
vt 0.414375 0.944375
vt 0.414375 0.944375
vt 0.414375 0.944375
vt 0.414375 0.944375
vt 0.414375 0.944375
vt 0.414375 0.944375
vt 0.414375 0.944375
vt 0.414375 0.944375
vt 0.414375 0.944375
vt 0.414375 0.944375
vt 0.414375 0.944375
vt 0.414375 0.944375
vt 0.414375 0.944375
vt 0.414375 0.944375
vt 0.414375 0.944375
vt 0.414375 0.944375
vt 0.414375 0.944375
vt 0.414375 0.944375
vt 0.414375 0.944375
vt 0.414375 0.944375
vt 0.414375 0.944375
vt 0.414375 0.944375
vt 0.414375 0.944375
vt 0.414375 0.944375
vt 0.414375 0.944375
vt 0.414375 0.944375
vt 0.414375 0.944375
vt 0.414375 0.944375
vt 0.414375 0.944375
vt 0.414375 0.944375
vt 0.414375 0.944375
vt 0.414375 0.944375
vt 0.414375 0.944375
vt 0.414375 0.944375
vt 0.414375 0.944375
vt 0.414375 0.944375
vt 0.414375 0.944375
vt 0.414375 0.944375
vt 0.414375 0.944375
vt 0.414375 0.944375
vt 0.365625 0.991875
vt 0.365625 0.991875
vt 0.365625 0.991875
vt 0.365625 0.991875
vt 0.365625 0.991875
vt 0.365625 0.991875
vt 0.365625 0.991875
vt 0.365625 0.991875
vt 0.365625 0.991875
vt 0.365625 0.991875
vt 0.365625 0.991875
vt 0.365625 0.991875
vt 0.365625 0.991875
vt 0.365625 0.991875
vt 0.365625 0.991875
vt 0.365625 0.991875
vn 0.0000 0.0000 -1.0000
vn -0.0000 1.0000 0.0000
vn 0.0000 -1.0000 0.0000
vn 0.0000 -0.0000 1.0000
vn 1.0000 0.0000 0.0000
vn -1.0000 0.0000 0.0000
vn -0.9997 0.0251 0.0000
vn 0.0000 0.9987 -0.0503
vn 0.0000 -0.9987 -0.0503
vn -0.0503 -0.9987 0.0000
vn 0.0503 0.9987 0.0000
vn 0.0000 0.0252 0.9997
vn 0.9997 0.0251 0.0000
vn 0.0000 0.0252 -0.9997
vn 0.0000 -0.9987 0.0503
vn 0.0000 0.9987 0.0503
vn -0.0503 0.9987 0.0000
vn 0.0503 -0.9987 0.0000
vn 0.9738 -0.2274 0.0000
vn 0.9611 0.2761 0.0000
vn 0.0000 0.2761 -0.9611
vn -0.9738 -0.2274 0.0000
vn 0.0000 -0.2274 -0.9738
vn 0.0000 0.2761 0.9611
vn 0.0000 -0.2274 0.9738
vn -0.9611 0.2761 0.0000
usemtl Material.003
s 1
f 7/1/1 8/2/1 9/3/1 12/4/1
f 1/5/2 2/6/2 6/7/2 5/8/2
f 2/6/2 4/9/2 7/1/2 6/7/2
f 4/9/2 3/10/2 8/2/2 7/1/2
f 3/10/2 1/5/2 5/8/2 8/2/2
f 11/11/3 12/4/3 16/12/3 15/13/3
f 5/8/4 6/7/4 11/11/4 10/14/4
f 6/7/5 7/1/5 12/4/5 11/11/5
f 8/2/6 5/8/6 10/14/6 9/3/6
f 16/12/1 13/15/1 17/16/1 20/17/1
f 9/3/3 10/14/3 14/18/3 13/15/3
f 12/4/3 9/3/3 13/15/3 16/12/3
f 10/14/3 11/11/3 15/13/3 14/18/3
f 14/18/4 15/13/4 19/19/4 18/20/4
f 15/13/5 16/12/5 20/17/5 19/19/5
f 13/15/6 14/18/6 18/20/6 17/16/6
f 23/21/7 22/22/7 21/23/7 24/24/7
f 28/25/1 25/26/1 29/27/1 32/28/1
f 30/29/2 31/30/2 32/28/2 29/27/2
f 26/31/4 27/32/4 31/30/4 30/29/4
f 27/32/5 28/25/5 32/28/5 31/30/5
f 25/26/6 26/31/6 30/29/6 29/27/6
f 38/33/8 36/34/8 21/23/8 42/35/8
f 39/36/9 34/37/9 23/21/9 43/38/9
f 34/37/10 35/39/10 22/22/10 23/21/10
f 36/34/11 33/40/11 24/24/11 21/23/11
f 22/22/12 41/41/12 42/35/12 21/23/12
f 41/41/13 43/38/13 44/42/13 42/35/13
f 43/38/14 23/21/14 24/24/14 44/42/14
f 35/39/15 37/43/15 41/41/15 22/22/15
f 33/40/16 40/44/16 44/42/16 24/24/16
f 40/44/17 38/33/17 42/35/17 44/42/17
f 37/43/18 39/36/18 43/38/18 41/41/18
f 2/6/4 1/5/4 45/45/4 46/46/4
f 1/5/6 3/10/6 47/47/6 45/45/6
f 3/10/1 4/9/1 48/48/1 47/47/1
f 4/9/5 2/6/5 46/46/5 48/48/5
usemtl Material.004
f 19/49/19 20/50/19 39/51/19 37/52/19
f 38/53/20 40/54/20 28/55/20 27/56/20
f 40/54/21 33/57/21 25/58/21 28/55/21
f 17/59/22 18/60/22 35/61/22 34/62/22
f 20/50/23 17/59/23 34/62/23 39/51/23
f 36/63/24 38/53/24 27/56/24 26/64/24
f 18/60/25 19/49/25 37/52/25 35/61/25
f 33/57/26 36/63/26 26/64/26 25/58/26
