# Blender 3.1.2
# www.blender.org
o plaques_01
v -0.079000 0.026489 0.011427
v -0.079000 0.084574 0.011427
v -0.079000 0.026489 -0.011427
v -0.079000 0.084574 -0.011427
v 0.079000 0.026489 0.011427
v 0.079000 0.084574 0.011427
v 0.079000 0.026489 -0.011427
v 0.079000 0.084574 -0.011427
v -0.000000 0.026489 -0.011427
v -0.000000 0.084574 -0.011427
v -0.000000 0.026489 0.011427
v -0.000000 0.084574 0.011427
v 0.036179 0.026489 -0.003725
v 0.042821 0.026489 -0.003725
v 0.042821 0.026489 0.003725
v 0.036179 0.026489 0.003725
v -0.042821 0.026489 -0.003725
v -0.036179 0.026489 -0.003725
v -0.036179 0.026489 0.003725
v -0.042821 0.026489 0.003725
v 0.042821 0.002436 -0.003725
v 0.036179 0.002436 -0.003725
v 0.036179 0.002436 0.003725
v 0.042821 0.002436 0.003725
v -0.036179 0.002436 -0.003725
v -0.042821 0.002436 -0.003725
v -0.042821 0.002436 0.003725
v -0.036179 0.002436 0.003725
vn -1.0000 -0.0000 -0.0000
vn -0.0000 -0.0000 -1.0000
vn 1.0000 -0.0000 -0.0000
vn -0.0000 -0.0000 1.0000
vn -0.0000 1.0000 -0.0000
vn -0.0000 -1.0000 -0.0000
vt 0.207375 0.881431
vt 0.207375 0.881431
vt 0.207375 0.881431
vt 0.207375 0.881431
vt 0.207375 0.881431
vt 0.207375 0.881431
vt 0.207375 0.881431
vt 0.207375 0.881431
vt 0.207375 0.881431
vt 0.207375 0.881431
vt 0.207375 0.881431
vt 0.207375 0.881431
vt 0.207375 0.881431
vt 0.207375 0.881431
vt 0.207375 0.881431
vt 0.207375 0.881431
vt 0.207375 0.881431
vt 0.207375 0.881431
vt 0.207375 0.881431
vt 0.207375 0.881431
vt 0.207375 0.881431
vt 0.207375 0.881431
vt 0.207375 0.881431
vt 0.207375 0.881431
vt 0.207375 0.881431
vt 0.207375 0.881431
vt 0.207375 0.881431
vt 0.207375 0.881431
s 1
f 1/1/1 2/2/1 4/4/1 3/3/1
f 9/9/2 10/10/2 8/8/2 7/7/2
f 7/7/3 8/8/3 6/6/3 5/5/3
f 11/11/4 12/12/4 2/2/4 1/1/4
f 17/17/2 18/18/2 25/25/2 26/26/2
f 10/10/5 4/4/5 2/2/5 12/12/5
f 8/8/5 10/10/5 12/12/5 6/6/5
f 18/18/3 19/19/3 28/28/3 25/25/3
f 5/5/4 6/6/4 12/12/4 11/11/4
f 3/3/2 4/4/2 10/10/2 9/9/2
f 9/9/6 7/7/6 14/14/6 13/13/6
f 7/7/6 5/5/6 15/15/6 14/14/6
f 5/5/6 11/11/6 16/16/6 15/15/6
f 11/11/6 9/9/6 13/13/6 16/16/6
f 3/3/6 9/9/6 18/18/6 17/17/6
f 9/9/6 11/11/6 19/19/6 18/18/6
f 11/11/6 1/1/6 20/20/6 19/19/6
f 1/1/6 3/3/6 17/17/6 20/20/6
f 14/14/3 15/15/3 24/24/3 21/21/3
f 19/19/4 20/20/4 27/27/4 28/28/4
f 13/13/2 14/14/2 21/21/2 22/22/2
f 20/20/1 17/17/1 26/26/1 27/27/1
f 15/15/4 16/16/4 23/23/4 24/24/4
f 16/16/1 13/13/1 22/22/1 23/23/1
