# 3ds Max Wavefront OBJ Exporter v0.97b - (c)2007 guruware
# File Created: 13.12.2013 18:30:04

mtllib Spinning Bike.mtl

#
# object Spinning_Bike
#

v  -42.7995 9.9799 -2.4601
v  -38.0574 9.9560 -2.4601
v  -10.0764 39.5053 -2.5474
v  -13.0483 42.6657 -2.5651
v  7.5610 35.8018 0.0000
v  27.9287 10.8207 0.0000
v  21.4081 10.5167 0.0000
v  3.7759 31.8504 0.0000
v  -7.0832 42.7048 0.0000
v  -1.3836 44.9629 0.0000
v  -10.0253 45.8927 0.0000
v  -20.3304 53.7915 0.0000
v  -16.5453 57.7428 0.0000
v  -5.4022 49.0788 0.0000
v  -31.0394 60.9861 0.0000
v  -29.6511 65.8085 0.0000
v  13.3936 59.1727 0.0000
v  12.0603 52.5642 0.0000
v  -9.7593 39.7980 -4.2532
v  -12.7014 42.9859 -4.2532
v  -38.0574 9.9560 -4.2532
v  -42.7995 9.9799 -4.2532
v  -7.3274 42.4767 1.3467
v  -10.2536 45.6784 1.3467
v  -1.3836 44.9629 2.6933
v  7.5610 35.8018 2.6933
v  -16.5453 57.7428 2.6933
v  -5.4022 49.0788 2.6933
v  -20.3304 53.7915 2.6933
v  -31.0394 60.9861 2.6933
v  12.0603 52.5642 2.6933
v  13.3936 59.1727 2.6933
v  -42.7995 9.9799 5.1534
v  -13.0483 42.6657 5.2584
v  -10.0764 39.5053 5.2407
v  -38.0574 9.9560 5.1534
v  3.7759 31.8504 2.6933
v  21.4081 10.5167 2.6933
v  27.9287 10.8207 2.6933
v  -7.0832 42.7048 2.6933
v  -10.0253 45.8927 2.6933
v  -29.6511 65.8085 2.6933
v  -12.7014 42.9859 6.9465
v  -9.7593 39.7980 6.9465
v  -42.7995 9.9799 6.9465
v  -38.0574 9.9560 6.9465
v  -30.4011 59.0223 1.2648
v  -32.0134 59.4682 -0.4080
v  -25.5842 82.7150 -0.4080
v  -23.9719 82.2691 1.2648
v  -33.6257 59.9141 1.2648
v  -27.1965 83.1609 1.2648
v  -32.0134 59.4682 2.9376
v  -25.5842 82.7150 2.9376
v  -25.8956 82.2112 1.2648
v  -26.3151 80.5919 -0.4080
v  -39.1266 83.9104 -0.4080
v  -38.7072 85.5297 1.2648
v  -26.7345 78.9725 1.2648
v  -39.5461 82.2910 1.2648
v  -26.3151 80.5919 2.9376
v  -39.1266 83.9104 2.9376
v  29.3798 70.3183 1.3770
v  29.4872 68.6490 -0.2958
v  8.6174 67.2925 0.1090
v  8.5359 68.5579 1.3770
v  29.5947 66.9796 1.3770
v  8.6988 66.0272 1.3770
v  29.4872 68.6490 3.0498
v  8.6174 67.2925 2.6450
v  11.3008 42.2836 1.3770
v  9.6718 42.6640 -0.2958
v  15.3221 66.8634 -0.2958
v  16.9511 66.4830 1.3770
v  8.0428 43.0443 1.3770
v  13.6931 67.2438 1.3770
v  9.6718 42.6640 3.0498
v  15.3221 66.8634 3.0498
v  9.3128 65.3892 1.3770
v  7.9444 65.6695 -0.0198
v  10.3414 72.0055 0.3104
v  11.0952 71.2510 1.3770
v  6.5761 65.9499 1.3770
v  9.5875 72.7600 1.3770
v  7.9444 65.6695 2.7738
v  10.3414 72.0055 2.4436
v  19.5715 74.4975 0.3104
v  20.7208 73.8810 1.3770
v  18.5726 75.0586 1.3770
v  19.5715 74.4975 2.4436
v  6.2398 74.8167 -1.1245
v  8.1205 77.1239 -0.5258
v  24.1176 78.9097 -3.4006
v  23.1298 73.9049 -3.7311
v  6.2398 74.8167 3.3543
v  23.1298 73.9049 5.9610
v  24.1176 78.9097 5.6305
v  8.1205 77.1239 2.7557
v  20.9714 7.7138 25.4548
v  20.9714 7.7138 -22.0983
v  28.7588 7.7138 -22.0983
v  28.7588 7.7138 25.4548
v  20.9714 11.1253 25.4548
v  28.7588 11.1253 25.4548
v  28.7588 11.1253 -22.0983
v  20.9714 11.1253 -22.0983
v  -44.4939 7.7138 25.4548
v  -44.4939 7.7138 -22.0983
v  -36.7064 7.7138 -22.0983
v  -36.7064 7.7138 25.4548
v  -44.4939 11.1253 25.4548
v  -36.7064 11.1253 25.4548
v  -36.7064 11.1253 -22.0983
v  -44.4939 11.1253 -22.0983
v  -24.9952 83.8721 1.6451
v  -26.1097 85.8025 1.6451
v  -26.1097 85.8025 13.1565
v  -24.9952 83.8721 13.1565
v  -28.0400 84.6880 1.6451
v  -28.0400 84.6880 13.1565
v  -26.9255 82.7577 1.6451
v  -26.9255 82.7577 13.1565
v  -48.5513 95.7091 10.0142
v  -49.3848 94.6417 8.7915
v  -50.2913 93.6355 10.0142
v  -49.4578 94.7029 11.2368
v  -27.5703 86.7048 16.2815
v  -27.0304 84.4175 17.2377
v  -29.1814 84.9939 15.3254
v  -28.6416 82.7066 16.2815
v  -32.6247 85.9165 18.6566
v  -32.2744 87.2238 17.3031
v  -42.3612 90.9158 10.9994
v  -43.1587 89.7282 12.1321
v  -32.6247 85.9165 15.9496
v  -42.2644 89.4886 9.8668
v  -32.9750 84.6091 17.3031
v  -43.0619 88.3010 10.9994
v  -24.9952 83.8721 -9.8663
v  -26.1097 85.8025 -9.8663
v  -28.0400 84.6880 -9.8663
v  -26.9255 82.7577 -9.8663
v  -48.5513 95.7091 -6.7240
v  -49.4578 94.7029 -7.9467
v  -50.2913 93.6355 -6.7240
v  -49.3848 94.6417 -5.5013
v  -27.0304 84.4175 -13.9476
v  -27.5703 86.7048 -12.9914
v  -29.1814 84.9939 -12.0352
v  -28.6416 82.7066 -12.9914
v  -32.6247 85.9165 -15.3665
v  -43.1587 89.7282 -8.8419
v  -42.3612 90.9158 -7.7093
v  -32.2744 87.2238 -14.0130
v  -42.2644 89.4886 -6.5766
v  -32.6247 85.9165 -12.6595
v  -43.0619 88.3010 -7.7093
v  -32.9750 84.6091 -14.0130
v  15.2812 28.3595 -1.5134
v  14.7075 38.1322 -1.5134
v  14.7075 38.1322 0.0766
v  15.2812 28.3595 0.0766
v  -10.8750 25.5906 -1.5134
v  -11.9066 39.4163 -1.5134
v  7.4158 42.6079 -1.5134
v  7.9896 23.4376 -1.5134
v  -11.9066 39.4163 0.0766
v  7.4158 42.6079 0.0766
v  -10.8750 25.5906 0.0766
v  7.9896 23.4376 0.0766
v  -20.9535 26.5505 -1.6057
v  -21.2419 37.7697 -1.6057
v  -21.2419 37.7697 0.1689
v  -20.9535 26.5505 0.1689
v  -30.2363 29.4883 -1.6057
v  -30.4904 33.2660 -1.6057
v  -30.4904 33.2660 0.1689
v  -30.2363 29.4883 0.1689
v  -12.1005 37.7672 0.6861
v  -17.6627 45.8797 0.6861
v  -17.6627 45.8797 2.5797
v  -12.1005 37.7672 2.5797
v  -28.2527 48.7173 0.6861
v  -28.2527 48.7173 2.5797
v  -38.4881 44.7882 0.6861
v  -38.4881 44.7882 2.5797
v  -44.4594 35.5934 0.6861
v  -44.4594 35.5934 2.5797
v  -43.8856 24.6447 0.6861
v  -43.8856 24.6447 2.5797
v  -36.9859 16.1244 0.6861
v  -36.9859 16.1244 2.5797
v  -26.3959 13.2868 0.6861
v  -26.3959 13.2868 2.5797
v  -16.1604 17.2158 0.6861
v  -16.1604 17.2158 2.5797
v  -11.0689 27.2397 0.6861
v  -11.0689 27.2397 2.5797
v  6.7251 29.3219 2.8441
v  22.0580 37.0302 2.8441
v  20.9182 39.6802 2.8441
v  5.5853 31.9719 2.8441
v  17.1334 37.4002 10.8840
v  22.8211 37.4002 10.8840
v  22.8211 37.4002 2.2171
v  17.1334 37.4002 2.2171
v  7.9393 34.7694 -2.2041
v  -7.3936 27.0611 -2.2041
v  -6.2539 24.4111 -2.2041
v  9.0791 32.1194 -2.2041
v  -7.3531 26.9751 -10.2984
v  -1.6654 26.9751 -10.2984
v  -1.6654 26.9751 -1.6315
v  -7.3531 26.9751 -1.6315
# 214 vertices

vn -0.0007 0.0038 1.0000
vn -0.0000 0.0000 -1.0000
vn 0.0000 0.0000 -1.0000
vn 0.5392 0.4977 -0.6794
vn -0.7321 0.6809 -0.0209
vn -0.7389 0.6738 0.0000
vn -0.7389 0.6738 -0.0006
vn -0.7307 0.6824 -0.0205
vn 0.7261 -0.6876 0.0004
vn 0.7247 -0.6888 0.0166
vn 0.7246 -0.6890 0.0162
vn 0.7261 -0.6876 -0.0000
vn -0.5088 -0.4697 0.7214
vn 0.7460 0.6659 0.0000
vn 0.7155 0.6986 0.0000
vn 0.5698 0.8218 0.0000
vn 0.6138 0.7894 0.0000
vn -0.5577 -0.8301 -0.0000
vn -0.5833 -0.8123 -0.0000
vn 0.4922 -0.8705 -0.0000
vn -0.4731 0.8810 0.0000
vn -0.0007 0.0038 -1.0000
vn 0.0000 -0.0000 1.0000
vn 0.5392 0.4977 0.6794
vn -0.0000 -0.0000 1.0000
vn -0.7307 0.6824 0.0205
vn -0.7321 0.6809 0.0209
vn -0.7205 0.6933 0.0124
vn -0.7022 0.7120 0.0000
vn -0.7205 0.6933 -0.0124
vn -0.7389 0.6738 0.0006
vn 0.7261 -0.6876 -0.0004
vn 0.7244 -0.6892 -0.0160
vn 0.7247 -0.6888 -0.0166
vn -0.5088 -0.4697 -0.7214
vn 0.7750 0.6319 0.0000
vn -0.7397 -0.6729 -0.0000
vn -0.7708 -0.6371 -0.0000
vn -0.7070 -0.7073 -0.0000
vn -0.6083 -0.7937 -0.0000
vn 0.5241 0.8516 0.0000
vn 0.7212 -0.6927 0.0088
vn -0.7655 0.6427 -0.0300
vn 0.7295 -0.6840 -0.0020
vn 0.9638 -0.2666 0.0000
vn 0.0000 -0.0000 -1.0000
vn -0.9638 0.2666 0.0000
vn -0.9638 0.2666 -0.0000
vn 0.0000 0.0000 1.0000
vn -0.2666 -0.9638 -0.0000
vn 0.2666 0.9638 0.0000
vn 0.2507 0.9681 -0.0000
vn -0.0000 -0.0000 -1.0000
vn -0.2507 -0.9681 0.0000
vn -0.2507 -0.9681 -0.0000
vn -0.9681 0.2507 0.0000
vn -0.0842 0.9965 0.0000
vn -0.0193 -0.0010 -0.9998
vn -0.0193 -0.0015 -0.9998
vn 0.0455 -0.9990 0.0000
vn -0.0193 -0.0010 0.9998
vn -0.0193 -0.0015 0.9998
vn 0.9979 0.0642 0.0000
vn 0.9738 -0.2274 -0.0000
vn -0.9738 0.2274 0.0000
vn -0.0000 0.0000 1.0000
vn -0.2274 -0.9738 -0.0000
vn 0.9544 -0.2984 0.0043
vn -0.0562 0.0768 -0.9955
vn -0.1580 0.1195 -0.9802
vn 0.9539 -0.3001 0.0073
vn -0.9158 0.4017 -0.0014
vn -0.9161 0.4010 -0.0016
vn -0.0504 0.0785 0.9956
vn -0.1530 0.1143 0.9816
vn -0.2007 -0.9797 -0.0000
vn -0.2007 -0.9797 0.0000
vn 0.1993 -0.7338 -0.6495
vn -0.1981 0.7532 -0.6273
vn -0.1981 0.7532 0.6273
vn 0.1993 -0.7338 0.6495
vn -0.1911 0.3186 -0.9284
vn -0.2051 0.3991 -0.8937
vn -0.1532 0.1241 -0.9804
vn -0.1469 0.0940 -0.9847
vn -0.1911 0.3186 0.9284
vn -0.1469 0.0940 0.9847
vn -0.1532 0.1241 0.9804
vn -0.2051 0.3991 0.8937
vn -0.0539 -0.9985 -0.0000
vn 0.9811 -0.1936 -0.0000
vn -0.1109 0.9938 0.0000
vn -0.7751 0.6318 0.0000
vn 0.0000 -1.0000 -0.0000
vn 0.0000 1.0000 0.0000
vn 1.0000 0.0000 -0.0000
vn -1.0000 0.0000 -0.0000
vn 0.9659 -0.2588 -0.0000
vn 0.2588 0.9659 0.0000
vn 0.3776 0.9257 0.0207
vn 0.9434 -0.2528 0.2147
vn -0.9659 0.2588 0.0000
vn -0.9156 0.2453 -0.3185
vn -0.2588 -0.9659 -0.0000
vn -0.1358 -0.9905 0.0207
vn 0.0780 0.9956 -0.0521
vn -0.4050 0.3162 -0.8579
vn -0.9547 -0.2931 -0.0516
vn -0.4970 0.3955 0.7724
vn 0.3479 0.9159 0.2002
vn 0.6103 -0.1635 0.7751
vn -0.5240 0.1404 -0.8401
vn -0.1566 -0.9671 0.2002
vn -0.1238 0.0218 0.9921
vn 0.2083 0.9593 0.1906
vn 0.4965 0.8678 -0.0170
vn -0.3689 0.0164 0.9293
vn 0.1289 -0.0628 -0.9897
vn 0.2820 -0.1258 -0.9511
vn -0.3690 -0.9128 0.1751
vn -0.4224 -0.8931 -0.1547
vn 0.9434 -0.2528 -0.2147
vn 0.3776 0.9257 -0.0207
vn -0.9156 0.2453 0.3185
vn -0.1358 -0.9905 -0.0207
vn 0.0780 0.9956 0.0521
vn -0.4970 0.3955 -0.7724
vn -0.9547 -0.2931 0.0516
vn -0.4050 0.3162 0.8579
vn 0.6103 -0.1635 -0.7751
vn 0.3479 0.9159 -0.2002
vn -0.5240 0.1404 0.8401
vn -0.1566 -0.9671 -0.2002
vn -0.1238 0.0218 -0.9921
vn -0.3689 0.0164 -0.9293
vn 0.4965 0.8678 0.0170
vn 0.2083 0.9593 -0.1906
vn 0.2820 -0.1258 0.9511
vn 0.1289 -0.0628 0.9897
vn -0.4224 -0.8931 0.1547
vn -0.3690 -0.9128 -0.1751
vn 0.9983 0.0586 0.0000
vn -0.1630 0.9866 0.0000
vn -0.1134 -0.9936 -0.0000
vn 0.5231 0.8523 0.0000
vn 0.5595 -0.8288 -0.0000
vn 0.0095 0.0005 -1.0000
vn -0.1737 0.9848 0.0000
vn 0.0095 0.0005 1.0000
vn -0.0948 -0.9955 -0.0000
vn -0.4378 0.8991 0.0000
vn -0.3017 -0.9534 -0.0000
vn -0.9977 -0.0671 0.0000
vn 0.8248 0.5655 0.0000
vn 0.5776 0.8163 0.0000
vn -0.0523 0.9986 0.0000
vn -0.6293 0.7771 0.0000
vn -0.9336 -0.3584 -0.0000
vn -0.5446 -0.8387 -0.0000
vn 0.0523 -0.9986 -0.0000
vn 0.6696 -0.7427 -0.0000
vn 0.8916 -0.4529 -0.0000
vn 0.9952 0.0975 0.0000
# 163 vertex normals

vt 0.0290 0.0103 0.0000
vt 0.0673 0.0101 0.0000
vt 0.2934 0.2515 0.0000
vt 0.2694 0.2774 0.0000
vt 0.4360 0.2213 0.0000
vt 0.5986 0.0159 0.0000
vt 0.5479 0.0147 0.0000
vt 0.4069 0.1895 0.0000
vt 0.3202 0.2802 0.0000
vt 0.3637 0.2961 0.0000
vt 0.2949 0.3042 0.0000
vt 0.2146 0.3708 0.0000
vt 0.2384 0.4075 0.0000
vt 0.3312 0.3297 0.0000
vt 0.1215 0.4316 0.0000
vt 0.1332 0.4674 0.0000
vt 0.4831 0.4122 0.0000
vt 0.4723 0.3582 0.0000
vt 0.2960 0.2539 0.0000
vt 0.2722 0.2800 0.0000
vt 0.3314 0.2729 0.0000
vt 0.4160 0.1808 0.0000
vt 0.4432 0.2053 0.0000
vt 0.3625 0.2983 0.0000
vt 0.4101 0.1879 0.0000
vt 0.3317 0.2726 0.0000
vt 0.3629 0.2983 0.0000
vt 0.4372 0.2124 0.0000
vt 0.3182 0.2783 0.0000
vt 0.2930 0.3025 0.0000
vt 0.3995 0.2566 0.0000
vt 0.3694 0.2306 0.0000
vt 0.4039 0.1927 0.0000
vt 0.4339 0.2187 0.0000
vt 0.3659 0.2936 0.0000
vt 0.3974 0.2589 0.0000
vt 0.3674 0.2329 0.0000
vt 0.3358 0.2676 0.0000
vt 0.3799 0.2666 0.0000
vt 0.3734 0.2721 0.0000
vt 0.3748 0.2445 0.0000
vt 0.3798 0.2399 0.0000
vt 0.3830 0.2337 0.0000
vt 0.4074 0.2273 0.0000
vt 0.4036 0.2353 0.0000
vt 0.3313 0.2729 0.0000
vt 0.3624 0.2983 0.0000
vt 0.4431 0.2052 0.0000
vt 0.4160 0.1807 0.0000
vt 0.4100 0.1878 0.0000
vt 0.4371 0.2123 0.0000
vt 0.3629 0.2982 0.0000
vt 0.3316 0.2725 0.0000
vt 0.4291 0.2239 0.0000
vt 0.3991 0.1979 0.0000
vt 0.3619 0.2980 0.0000
vt 0.3319 0.2720 0.0000
vt 0.4039 0.2357 0.0000
vt 0.4079 0.2278 0.0000
vt 0.3835 0.2342 0.0000
vt 0.3804 0.2405 0.0000
vt 0.3753 0.2449 0.0000
vt 0.3739 0.2726 0.0000
vt 0.3803 0.2669 0.0000
vt 0.1291 0.4542 0.0000
vt 0.1161 0.4571 0.0000
vt 0.1614 0.6110 0.0000
vt 0.1708 0.6085 0.0000
vt 0.1048 0.4599 0.0000
vt 0.1501 0.6146 0.0000
vt 0.1507 0.6051 0.0000
vt 0.1501 0.6002 0.0000
vt 0.0486 0.6257 0.0000
vt 0.0508 0.6313 0.0000
vt 0.1475 0.5930 0.0000
vt 0.0480 0.6188 0.0000
vt 0.6014 0.5095 0.0000
vt 0.6021 0.4963 0.0000
vt 0.4544 0.4883 0.0000
vt 0.4563 0.4972 0.0000
vt 0.6027 0.4830 0.0000
vt 0.4528 0.4794 0.0000
vt 0.4711 0.2792 0.0000
vt 0.4606 0.2805 0.0000
vt 0.5100 0.4817 0.0000
vt 0.5201 0.4786 0.0000
vt 0.4502 0.2817 0.0000
vt 0.5011 0.4843 0.0000
vt 0.4524 0.4743 0.0000
vt 0.4475 0.4748 0.0000
vt 0.4617 0.5222 0.0000
vt 0.4643 0.5180 0.0000
vt 0.4418 0.4758 0.0000
vt 0.4592 0.5264 0.0000
vt 0.5187 0.5420 0.0000
vt 0.5258 0.5371 0.0000
vt 0.5125 0.5465 0.0000
vt 0.1562 0.9640 0.0000
vt 0.1455 0.9351 0.0000
vt 0.1832 0.6788 0.0000
vt 0.2030 0.7045 0.0000
vt 0.0758 0.9640 0.0000
vt 0.0290 0.7045 0.0000
vt 0.0442 0.6795 0.0000
vt 0.0866 0.9351 0.0000
vt 0.0240 0.9524 0.0000
vt 0.0642 0.9524 0.0000
vt 0.0642 0.9772 0.0000
vt 0.0240 0.9772 0.0000
vt 0.0254 0.9512 0.0000
vt 0.0664 0.9512 0.0000
vt 0.0664 0.9767 0.0000
vt 0.0254 0.9767 0.0000
vt 0.7781 0.0306 0.0000
vt 0.7763 0.5962 0.0000
vt 0.6602 0.5899 0.0000
vt 0.6628 0.0154 0.0000
vt 0.6910 0.5805 0.0000
vt 0.6910 0.0254 0.0000
vt 0.6644 0.0254 0.0000
vt 0.6644 0.5805 0.0000
vt 0.6627 0.0147 0.0000
vt 0.6600 0.5898 0.0000
vt 0.7768 0.5964 0.0000
vt 0.7783 0.0299 0.0000
vt 0.6918 0.5838 0.0000
vt 0.6918 0.0255 0.0000
vt 0.6618 0.0255 0.0000
vt 0.6618 0.5838 0.0000
vt 0.7618 0.7391 0.0000
vt 0.7618 0.7522 0.0000
vt 0.6494 0.7543 0.0000
vt 0.6480 0.7420 0.0000
vt 0.7621 0.7628 0.0000
vt 0.6494 0.7622 0.0000
vt 0.7618 0.7497 0.0000
vt 0.6494 0.7518 0.0000
vt 0.6799 0.9739 0.0000
vt 0.6903 0.9777 0.0000
vt 0.6799 0.9823 0.0000
vt 0.6700 0.9785 0.0000
vt 0.6192 0.7693 0.0000
vt 0.6117 0.7601 0.0000
vt 0.6258 0.7738 0.0000
vt 0.6192 0.7660 0.0000
vt 0.6007 0.8141 0.0000
vt 0.6089 0.8113 0.0000
vt 0.6735 0.9049 0.0000
vt 0.6639 0.9071 0.0000
vt 0.6182 0.8076 0.0000
vt 0.6825 0.9002 0.0000
vt 0.6082 0.8093 0.0000
vt 0.6735 0.9027 0.0000
vt 0.8759 0.7448 0.0000
vt 0.8750 0.7564 0.0000
vt 0.8732 0.7646 0.0000
vt 0.8750 0.7539 0.0000
vt 0.8437 0.9739 0.0000
vt 0.8515 0.9785 0.0000
vt 0.8437 0.9796 0.0000
vt 0.8349 0.9777 0.0000
vt 0.9080 0.7623 0.0000
vt 0.9023 0.7713 0.0000
vt 0.8956 0.7758 0.0000
vt 0.9023 0.7680 0.0000
vt 0.9204 0.8080 0.0000
vt 0.8561 0.9037 0.0000
vt 0.8489 0.9024 0.0000
vt 0.9111 0.8091 0.0000
vt 0.8408 0.8981 0.0000
vt 0.9017 0.8080 0.0000
vt 0.8489 0.9003 0.0000
vt 0.9111 0.8069 0.0000
vt 0.9401 0.0484 0.0000
vt 0.8496 0.0508 0.0000
vt 0.9534 0.3197 0.0000
vt 0.8364 0.3214 0.0000
vt 0.8165 0.1284 0.0000
vt 0.9784 0.1267 0.0000
vt 0.9424 0.4287 0.0000
vt 0.8492 0.4292 0.0000
vt 0.9255 0.5664 0.0000
vt 0.8680 0.5662 0.0000
vt 0.5538 0.8888 0.0000
vt 0.5006 0.9619 0.0000
vt 0.3993 0.9875 0.0000
vt 0.3014 0.9521 0.0000
vt 0.2476 0.8698 0.0000
vt 0.2497 0.7705 0.0000
vt 0.3157 0.6937 0.0000
vt 0.4170 0.6681 0.0000
vt 0.5150 0.7035 0.0000
vt 0.5637 0.7939 0.0000
vt 0.5507 0.6585 0.0000
vt 0.8338 0.6568 0.0000
vt 0.8340 0.7244 0.0000
vt 0.5515 0.7254 0.0000
vt 0.9901 0.6071 0.0000
vt 0.9901 0.7284 0.0000
vt 0.8553 0.7284 0.0000
vt 0.8553 0.6071 0.0000
# 201 texture coords

g Spinning_Bike
usemtl Spinning_Bike
s off
f 1/1/1 2/2/1 3/3/1 4/4/1 
s 1
f 5/5/2 6/6/3 7/7/3 8/8/2 
s off
f 5/5/3 8/8/3 9/9/3 10/10/3 
f 11/11/3 12/12/3 13/13/3 14/14/3 
f 12/12/3 15/15/3 16/16/3 13/13/3 
f 10/10/3 9/9/3 11/11/3 14/14/3 
f 14/14/3 17/17/3 18/18/3 10/10/3 
f 9/9/4 19/19/4 20/20/4 11/11/4 
f 19/19/2 21/2/2 22/1/2 20/20/2 
s 2
f 20/21/5 22/22/6 1/23/7 4/24/8 
s 1
f 21/25/9 19/26/10 3/27/11 2/28/12 
s off
f 4/4/13 3/3/13 23/29/13 24/30/13 
s 2
f 5/5/14 10/10/15 25/10/15 26/5/14 
s 1
f 13/31/16 27/32/16 28/33/17 14/34/17 
f 15/35/18 12/36/19 29/37/19 30/38/18 
f 10/10/20 18/18/20 31/18/20 25/10/20 
s 4
f 17/17/21 14/14/21 28/14/21 32/17/21 
s off
f 33/1/22 34/4/22 35/3/22 36/2/22 
s 1
f 26/5/23 37/8/23 38/7/23 39/6/23 
s off
f 26/5/23 25/10/23 40/9/23 37/8/23 
f 41/11/23 28/14/23 27/13/23 29/12/23 
f 29/12/23 27/13/23 42/16/23 30/15/23 
f 25/10/23 28/14/23 41/11/23 40/9/23 
f 28/14/23 25/10/23 31/18/23 32/17/23 
f 40/9/24 41/11/24 43/20/24 44/19/24 
f 44/19/25 43/20/25 45/1/25 46/2/25 
s 2
f 34/39/26 43/40/27 41/41/28 24/42/29 
f 11/43/30 20/44/5 4/45/8 24/42/29 
f 41/41/28 11/43/30 24/42/29 
f 43/46/27 34/47/26 33/48/31 45/49/6 
s 1
f 46/50/32 36/51/12 35/52/33 44/53/34 
s off
f 34/4/35 24/30/35 23/29/35 35/3/35 
s 2
f 5/5/14 26/5/14 39/6/36 6/6/36 
f 8/8/37 7/7/38 38/7/38 37/8/37 
f 8/8/37 37/8/37 40/9/39 9/9/39 
s 1
f 11/54/40 41/55/40 29/37/19 12/36/19 
f 13/31/16 16/56/41 42/57/41 27/32/16 
f 3/58/11 19/59/10 9/60/42 23/61/43 
f 40/62/44 44/63/34 35/64/33 9/60/42 
f 23/61/43 9/60/42 35/64/33 
s 8
f 47/65/45 48/66/2 49/67/46 50/68/45 
f 48/66/2 51/69/47 52/70/48 49/67/46 
f 51/69/47 53/66/49 54/67/23 52/70/48 
f 53/66/49 47/65/45 50/68/45 54/67/23 
s 1
f 51/69/50 48/66/50 47/65/50 53/66/50 
f 49/67/51 52/70/51 54/67/51 50/68/51 
s 8
f 55/71/52 56/72/53 57/73/53 58/74/52 
f 56/72/53 59/75/54 60/76/55 57/73/53 
f 59/75/54 61/72/23 62/73/25 60/76/55 
f 61/72/23 55/71/52 58/74/52 62/73/25 
s 1
f 57/73/56 60/76/56 62/73/56 58/74/56 
s 8
f 63/77/57 64/78/58 65/79/59 66/80/57 
f 64/78/58 67/81/60 68/82/60 65/79/59 
f 67/81/60 69/78/61 70/79/62 68/82/60 
f 69/78/61 63/77/57 66/80/57 70/79/62 
s 1
f 67/81/63 64/78/63 63/77/63 69/78/63 
s 8
f 71/83/64 72/84/46 73/85/2 74/86/64 
f 72/84/46 75/87/65 76/88/65 73/85/2 
f 75/87/65 77/84/23 78/85/66 76/88/65 
f 77/84/23 71/83/64 74/86/64 78/85/66 
s 1
f 75/87/67 72/84/67 71/83/67 77/84/67 
s 8
f 79/89/68 80/90/69 81/91/70 82/92/71 
f 80/90/69 83/93/72 84/94/73 81/91/70 
f 83/93/72 85/90/74 86/91/75 84/94/73 
f 85/90/74 79/89/68 82/92/71 86/91/75 
s 1
f 83/93/76 80/90/77 79/89/76 85/90/76 
s off
f 82/92/78 81/91/78 87/95/78 88/96/78 
f 81/91/79 84/94/79 89/97/79 87/95/79 
f 84/94/80 86/91/80 90/95/80 89/97/80 
f 86/91/81 82/92/81 88/96/81 90/95/81 
s 2
f 91/98/82 92/99/83 93/100/84 94/101/85 
s 4
f 95/102/86 96/103/87 97/104/88 98/105/89 
s 8
f 91/106/90 94/107/90 96/108/90 95/109/90 
s 16
f 94/110/91 93/111/91 97/112/91 96/113/91 
s 32
f 93/100/92 92/99/92 98/105/92 97/104/92 
s 64
f 92/99/93 91/98/93 95/102/93 98/105/93 
s 2
f 99/114/94 100/115/94 101/116/94 102/117/94 
s 4
f 103/114/95 104/117/95 105/116/95 106/115/95 
s 8
f 99/114/23 102/117/23 104/117/23 103/114/23 
s 16
f 102/118/96 101/119/96 105/120/96 104/121/96 
s 32
f 101/116/3 100/115/3 106/115/3 105/116/3 
s 64
f 100/119/97 99/118/97 103/121/97 106/120/97 
s 2
f 107/122/94 108/123/94 109/124/94 110/125/94 
s 4
f 111/122/95 112/125/95 113/124/95 114/123/95 
s 8
f 107/122/23 110/125/23 112/125/23 111/122/23 
s 16
f 110/126/96 109/127/96 113/128/96 112/129/96 
s 32
f 109/124/3 108/123/3 114/123/3 113/124/3 
s 64
f 108/127/97 107/126/97 111/129/97 114/128/97 
s 1
f 115/130/98 116/131/99 117/132/100 118/133/101 
f 116/131/99 119/134/102 120/135/103 117/132/100 
f 119/134/102 121/136/104 122/137/105 120/135/103 
f 121/136/104 115/130/98 118/133/101 122/137/105 
f 123/138/106 124/139/107 125/140/108 126/141/109 
f 117/132/100 127/142/110 128/143/111 118/133/101 
f 120/135/103 129/144/112 127/142/110 117/132/100 
f 120/135/103 122/137/105 130/145/113 129/144/112 
f 122/137/105 118/133/101 128/143/111 130/145/113 
f 131/146/114 132/147/115 133/148/116 134/149/117 
f 132/147/115 135/150/118 136/151/119 133/148/116 
f 135/150/118 137/152/120 138/153/121 136/151/119 
f 137/152/120 131/146/114 134/149/117 138/153/121 
f 134/149/117 133/148/116 123/138/106 126/141/109 
f 133/148/116 136/151/119 124/139/107 123/138/106 
f 136/151/119 138/153/121 125/140/108 124/139/107 
f 138/153/121 134/149/117 126/141/109 125/140/108 
f 132/147/115 131/146/114 128/143/111 127/142/110 
f 135/150/118 132/147/115 127/142/110 129/144/112 
f 130/145/113 137/152/120 135/150/118 129/144/112 
f 128/143/111 131/146/114 137/152/120 130/145/113 
f 115/130/98 139/154/122 140/155/123 116/131/99 
f 116/131/99 140/155/123 141/156/124 119/134/102 
f 119/134/102 141/156/124 142/157/125 121/136/104 
f 121/136/104 142/157/125 139/154/122 115/130/98 
f 143/158/126 144/159/127 145/160/128 146/161/129 
f 140/155/123 139/154/122 147/162/130 148/163/131 
f 141/156/124 140/155/123 148/163/131 149/164/132 
f 141/156/124 149/164/132 150/165/133 142/157/125 
f 142/157/125 150/165/133 147/162/130 139/154/122 
f 151/166/134 152/167/135 153/168/136 154/169/137 
f 154/169/137 153/168/136 155/170/138 156/171/139 
f 156/171/139 155/170/138 157/172/140 158/173/141 
f 158/173/141 157/172/140 152/167/135 151/166/134 
f 152/167/135 144/159/127 143/158/126 153/168/136 
f 153/168/136 143/158/126 146/161/129 155/170/138 
f 155/170/138 146/161/129 145/160/128 157/172/140 
f 157/172/140 145/160/128 144/159/127 152/167/135 
f 154/169/137 148/163/131 147/162/130 151/166/134 
f 156/171/139 149/164/132 148/163/131 154/169/137 
f 150/165/133 149/164/132 156/171/139 158/173/141 
f 147/162/130 150/165/133 158/173/141 151/166/134 
s 8
f 159/174/142 160/175/142 161/175/142 162/174/142 
s off
f 163/176/3 164/177/3 165/178/3 166/179/3 
f 164/177/143 167/177/143 168/178/143 165/178/143 
f 167/177/25 169/176/25 170/179/25 168/178/25 
f 169/176/144 163/176/144 166/179/144 170/179/144 
f 166/179/3 165/178/3 160/175/3 159/174/3 
f 165/178/145 168/178/145 161/175/145 160/175/145 
f 168/178/25 170/179/25 162/174/25 161/175/25 
f 170/179/146 166/179/146 159/174/146 162/174/146 
f 164/177/147 163/176/147 171/180/147 172/181/147 
f 167/177/148 164/177/148 172/181/148 173/181/148 
f 169/176/149 167/177/149 173/181/149 174/180/149 
f 163/176/150 169/176/150 174/180/150 171/180/150 
f 172/181/3 171/180/3 175/182/3 176/183/3 
f 173/181/151 172/181/151 176/183/151 177/183/151 
f 174/180/23 173/181/23 177/183/23 178/182/23 
f 171/180/152 174/180/152 178/182/152 175/182/152 
f 178/182/153 177/183/153 176/183/153 175/182/153 
s 8
f 179/184/154 180/185/155 181/185/155 182/184/154 
f 180/185/155 183/186/156 184/186/156 181/185/155 
f 183/186/156 185/187/157 186/187/157 184/186/156 
f 185/187/157 187/188/102 188/188/102 186/187/157 
f 187/188/102 189/189/158 190/189/158 188/188/102 
f 189/189/158 191/190/159 192/190/159 190/189/158 
f 191/190/159 193/191/160 194/191/160 192/190/159 
f 193/191/160 195/192/161 196/192/161 194/191/160 
f 195/192/161 197/193/162 198/193/162 196/192/161 
s 1
f 193/191/3 191/190/3 189/189/3 197/193/3 
f 189/189/3 187/188/3 185/187/3 197/193/3 
f 185/187/3 183/186/3 180/185/3 197/193/3 
f 180/185/3 179/184/3 197/193/3 
f 195/192/46 193/191/3 197/193/3 
f 182/184/23 181/185/25 184/186/25 196/192/25 
f 184/186/25 186/187/23 188/188/25 196/192/25 
f 188/188/25 190/189/23 192/190/25 196/192/25 
f 192/190/25 194/191/25 196/192/25 
f 198/193/23 182/184/23 196/192/25 
s off
f 182/184/163 198/193/163 197/193/163 179/184/163 
s 1
f 199/194/23 200/195/23 201/196/23 202/197/23 
s 4
f 203/198/95 204/199/95 205/200/95 206/201/95 
s 1
f 207/194/66 208/195/66 209/196/66 210/197/66 
s 4
f 211/198/94 212/199/94 213/200/94 214/201/94 
# 166 polygons - 6 triangles

